<svg xmlns="http://www.w3.org/2000/svg" viewBox="0 0 600 800">
  <defs>
    <linearGradient id="g" x1="0" y1="0" x2="1" y2="1">
      <stop offset="0" stop-color="#1c1242"/>
      <stop offset="1" stop-color="#0a0720"/>
    </linearGradient>
    <radialGradient id="glow" cx="0.82" cy="0.86" r="0.6">
      <stop offset="0" stop-color="#5b3df0" stop-opacity="0.5"/>
      <stop offset="1" stop-color="#5b3df0" stop-opacity="0"/>
    </radialGradient>
  </defs>
  <rect width="600" height="800" fill="url(#g)"/>
  <rect width="600" height="800" fill="url(#glow)"/>
  <g stroke="#7c5cff" stroke-width="1" opacity="0.4" fill="none">
    <path d="M70 200 L200 260 L165 380 L300 430 L260 560"/>
    <path d="M300 430 L440 470 L520 600"/>
    <path d="M200 260 L350 230 L470 300"/>
  </g>
  <g fill="#a78bff">
    <circle cx="70" cy="200" r="3"/>
    <circle cx="200" cy="260" r="3"/>
    <circle cx="165" cy="380" r="3"/>
    <circle cx="300" cy="430" r="3.5"/>
    <circle cx="260" cy="560" r="3"/>
    <circle cx="440" cy="470" r="3"/>
    <circle cx="350" cy="230" r="3"/>
    <circle cx="470" cy="300" r="3"/>
    <circle cx="520" cy="600" r="3"/>
  </g>
  <path d="M640 830 A250 250 0 0 1 350 770" fill="none" stroke="#8b6bff" stroke-width="2" opacity="0.45"/>
  <g fill="#cdbcff">
    <circle cx="120" cy="120" r="1.6" opacity="0.55"/>
    <circle cx="500" cy="160" r="1.6" opacity="0.5"/>
    <circle cx="420" cy="690" r="1.6" opacity="0.5"/>
  </g>
</svg>
