<svg xmlns="http://www.w3.org/2000/svg" viewBox="0 0 600 800">
  <defs>
    <linearGradient id="g" x1="0" y1="0" x2="1" y2="1">
      <stop offset="0" stop-color="#0a2630"/>
      <stop offset="1" stop-color="#041318"/>
    </linearGradient>
    <radialGradient id="glow" cx="0.78" cy="0.25" r="0.6">
      <stop offset="0" stop-color="#1fb6a6" stop-opacity="0.28"/>
      <stop offset="1" stop-color="#1fb6a6" stop-opacity="0"/>
    </radialGradient>
  </defs>
  <rect width="600" height="800" fill="url(#g)"/>
  <rect width="600" height="800" fill="url(#glow)"/>
  <g fill="none" stroke="#1fb6a6" stroke-width="1.4" opacity="0.42">
    <path d="M40 60h120v90h95"/>
    <path d="M600 200h-140v110h-85v130"/>
    <path d="M120 760v-120h150v-80"/>
    <path d="M520 745v-95h-115v-70"/>
    <path d="M0 430h185v-60h120v90"/>
    <path d="M600 540h-90v80"/>
  </g>
  <g fill="#2dd4bf">
    <circle cx="255" cy="150" r="4"/>
    <circle cx="460" cy="310" r="4"/>
    <circle cx="270" cy="560" r="4"/>
    <circle cx="405" cy="650" r="4"/>
    <circle cx="305" cy="370" r="4"/>
    <circle cx="510" cy="620" r="4"/>
  </g>
  <g fill="#7ff0e0">
    <circle cx="150" cy="240" r="1.6" opacity="0.6"/>
    <circle cx="430" cy="120" r="1.6" opacity="0.5"/>
    <circle cx="200" cy="690" r="1.6" opacity="0.5"/>
  </g>
</svg>
