<svg xmlns="http://www.w3.org/2000/svg" viewBox="0 0 600 800">
  <defs>
    <linearGradient id="g" x1="0" y1="0" x2="1" y2="1">
      <stop offset="0" stop-color="#0a2038"/>
      <stop offset="1" stop-color="#060e20"/>
    </linearGradient>
    <filter id="b" x="-50%" y="-50%" width="200%" height="200%">
      <feGaussianBlur stdDeviation="9"/>
    </filter>
  </defs>
  <rect width="600" height="800" fill="url(#g)"/>
  <g fill="#5fc8ff" filter="url(#b)">
    <circle cx="120" cy="620" r="11" opacity="0.45"/>
    <circle cx="430" cy="540" r="15" opacity="0.4"/>
    <circle cx="300" cy="710" r="9" opacity="0.4"/>
    <circle cx="500" cy="200" r="11" opacity="0.35"/>
    <circle cx="90" cy="300" r="8" opacity="0.3"/>
  </g>
  <g fill="none" stroke="#3aa0ff" stroke-width="1.3" opacity="0.38">
    <path d="M0 120h150v80h90"/>
    <path d="M600 320h-120v90h-70v120"/>
    <path d="M60 780v-110h130"/>
    <path d="M560 740v-80h-100v-90"/>
  </g>
  <g fill="#2dd4bf">
    <circle cx="240" cy="200" r="3.5"/>
    <circle cx="410" cy="410" r="3.5"/>
    <circle cx="190" cy="670" r="3.5"/>
    <circle cx="460" cy="660" r="3.5"/>
  </g>
  <g fill="#bfe4ff">
    <circle cx="320" cy="150" r="1.6" opacity="0.6"/>
    <circle cx="150" cy="470" r="1.6" opacity="0.5"/>
    <circle cx="520" cy="470" r="1.6" opacity="0.45"/>
  </g>
</svg>
