<svg xmlns="http://www.w3.org/2000/svg" viewBox="0 0 600 800">
  <defs>
    <linearGradient id="g" x1="0" y1="0" x2="1" y2="1">
      <stop offset="0" stop-color="#0c2f57"/>
      <stop offset="1" stop-color="#06182f"/>
    </linearGradient>
    <radialGradient id="glow" cx="0.28" cy="0.72" r="0.65">
      <stop offset="0" stop-color="#1e63b0" stop-opacity="0.55"/>
      <stop offset="1" stop-color="#1e63b0" stop-opacity="0"/>
    </radialGradient>
    <pattern id="dots" width="24" height="24" patternUnits="userSpaceOnUse">
      <circle cx="2" cy="2" r="1.5" fill="#5fb0ff" opacity="0.32"/>
    </pattern>
  </defs>
  <rect width="600" height="800" fill="url(#g)"/>
  <rect width="600" height="800" fill="url(#glow)"/>
  <rect y="380" width="600" height="420" fill="url(#dots)" opacity="0.7"/>
  <g fill="none" stroke="#6cc0ff">
    <path d="M0 520 Q150 455 300 510 T600 498" stroke-width="1.6" opacity="0.45"/>
    <path d="M0 565 Q150 500 300 555 T600 543" stroke-width="1.6" opacity="0.34"/>
    <path d="M0 610 Q150 545 300 600 T600 588" stroke-width="1.6" opacity="0.26"/>
    <path d="M0 655 Q150 590 300 645 T600 633" stroke-width="1.6" opacity="0.18"/>
  </g>
  <g fill="#9fd0ff">
    <circle cx="84" cy="170" r="2" opacity="0.6"/>
    <circle cx="498" cy="118" r="1.6" opacity="0.5"/>
    <circle cx="430" cy="300" r="2.2" opacity="0.5"/>
    <circle cx="120" cy="360" r="1.6" opacity="0.42"/>
    <circle cx="540" cy="430" r="1.8" opacity="0.4"/>
  </g>
</svg>
